<?xml version="1.0" encoding="UTF-8"?><svg id="Layer_1" xmlns="http://www.w3.org/2000/svg" viewBox="0 0 903.91 903.91"><defs><style>.cls-1{fill:#fff;}</style></defs><path class="cls-1" d="M798.97,612.11c-8.63-35.33-30.19-43.92-46.11-41.53-15.92,2.39-29.93,18.61-29.39,53.12,.54,34.52,20.22,44.35,43.68,42.4s40.45-18.67,31.82-54Zm-53.57,22.36l-.36-29.91,7.55-1.36,4.41,29.94-11.6,1.32Zm28.15-3.57l-4.41-29.94,7.18-.98,8.83,29.5-11.6,1.42Z"/><path class="cls-1" d="M711.33,615.62c2.56-26.12,14.1-49.19,37.26-54.6-61.41-23.89-86.57-57.21-99.68-84.1,7.82-10.33,17.74-26.2,23.88-46.36,11.33-37.21-9.71-101.93-9.71-101.93l-18.61,2.43-16.07,107.32c-37.46-62.53-102.42-132.83-204.9-132.83-144.38,0-224.57,93.74-229.24,215.06-3.61-.65-7.41-.74-11.51-.14-35.82,5.18-33.05,42.52-52.03,43.69-9.57,.59-14.93-3.51-19.92-14.12l-12.21,4.94c3.26,14.36,15.19,27.69,29.74,27.69,29.55,0,36.14-36.19,52.39-36.19,6.28,0,10.64,2.22,14.75,5.6,9.46,76.58,62.93,221.7,62.93,221.7h27.83v-95.04c11.07,2.29,23.97,4.67,38.44,6.87,5.3,37.15,23.65,88.17,23.65,88.17h27.83v-82.06c29.94,2.58,63.76,3.81,100.31,2.4,6.74,38.82,22.32,79.67,22.32,79.67h27.83v-83.24c12.59-1.31,25.41-2.95,38.44-4.99,6.36,40.73,23.65,88.23,23.65,88.23h27.83l-.39-31.67-5.38-74.77s-22.92-18.34-30.74-43.69l8.63-5.39c28.86,33.19,65.67,46.65,145.23,54.53,.06-.02,.12-.03,.19-.05-2.82-.98-5.35-2.2-7.37-3.71-10.06-7.54-18.2-24.53-15.37-53.39Zm-441.15-208.25l-9.62-8.99c30.93-39.92,67.24-53.12,101.79-63.22l2.81,9.6c-32.97,9.64-62.62,25.13-94.98,62.62Zm274.79,98.43s-30.72-8.42-59.9-34.14c-29.18-25.72-45.27-91.84-45.27-91.84l17.11-7.71,97.87,110.42-9.81,23.28Zm41.26,49.89l-1.67-21.67,9.91-2.39,7.4,20.28-15.64,3.78Z"/></svg>